# xmcd CD database file
# Copyright (C) 1996 Ti Kan
#
# Track frame offsets:
#	187
#	13820
#	30090
#	50342
#	64742
#	80115
#	99085
#	113792
#	129960
#
# Disc length: 1950 seconds
#
# Revision: 1
# Processed by: cddbd v1.4b41PL1 Copyright (c) Steve Scherf et al.
# Submitted via: EasyCD 2.21 - (C) 1996 Greg Leichner
#
DISCID=64079c09
DTITLE=The Judds - This County's Rockin'
DYEAR=1900
DGENRE=
TTITLE0=This Country's Rockin'
TTITLE1=Changes Of Heart
TTITLE2=River Of Time
TTITLE3=Cadillac Red
TTITLE4=Mr. Pain
TTITLE5=Rompin' Stompin' Blues
TTITLE6=Lazy Country Evening
TTITLE7=Guardian Angels
TTITLE8=When King Jesus Calls His Children Home
EXTD=
EXTT0=
EXTT1=
EXTT2=
EXTT3=
EXTT4=
EXTT5=
EXTT6=
EXTT7=
EXTT8=
PLAYORDER=
